<svg id="Gradient" height="512" viewBox="0 0 512 512" width="512" xmlns="http://www.w3.org/2000/svg" xmlns:xlink="http://www.w3.org/1999/xlink"><linearGradient id="linear-gradient" gradientUnits="userSpaceOnUse" x1="256.001" x2="256.001" y1="496" y2="16"><stop offset="0" stop-color="#12c2e9"/><stop offset=".5" stop-color="#c471ed"/><stop offset="1" stop-color="#f64f59"/></linearGradient><path d="m256 16a128.145 128.145 0 0 0 -128 128c0 62.377 44.854 114.467 104 125.734v218.266a8 8 0 0 0 8 8h32a8 8 0 0 0 8-8v-218.266c59.147-11.266 104-63.356 104-125.734a128.144 128.144 0 0 0 -128-128zm81.359 51.11c-9.758 8-17.793 10.16-26.86 12.592-11.423 3.064-24.369 6.537-40.025 22.193a79.4 79.4 0 0 0 -15.554 21.065 65.2 65.2 0 0 1 -2.458-18.96c0-17.857 4.851-26.266 10.468-36 4.988-8.645 10.537-18.264 12.148-34.365a111.9 111.9 0 0 1 62.281 33.475zm-65.713 91.007a65.192 65.192 0 0 1 15.146 11.67c12.626 12.626 15.141 22 18.053 32.857 2.583 9.63 5.458 20.344 15.679 32.852a111.384 111.384 0 0 1 -64.524 20.504c-1.054 0-2.1-.018-3.153-.047 1.237-12.582 5.387-19.816 10.083-27.956 5.91-10.244 12.609-21.855 12.609-44a79.417 79.417 0 0 0 -3.893-25.88zm-12.492-126.07c-1.238 12.582-5.387 19.815-10.083 27.953-5.91 10.244-12.609 21.855-12.609 44a79.4 79.4 0 0 0 3.9 25.891 65.224 65.224 0 0 1 -15.143-11.668c-12.627-12.628-15.143-22.005-18.056-32.861-2.584-9.631-5.46-20.346-15.683-32.856a111.383 111.383 0 0 1 64.52-20.506c1.055 0 2.106.018 3.154.047zm-80.044 30.6c8 9.76 10.163 17.8 12.6 26.864 3.064 11.423 6.539 24.371 22.2 40.028a79.423 79.423 0 0 0 21.054 15.548 65.2 65.2 0 0 1 -18.964 2.452c-17.857 0-26.266-4.851-36-10.469-8.646-4.987-18.265-10.537-34.366-12.147a111.9 111.9 0 0 1 33.476-62.281zm-35.063 78.2c12.583 1.238 19.816 5.387 27.956 10.084 10.245 5.91 21.856 12.609 44 12.609a79.413 79.413 0 0 0 25.887-3.895 65.236 65.236 0 0 1 -11.667 15.14c-12.628 12.628-22 15.143-32.861 18.056-9.631 2.585-20.346 5.46-32.855 15.683a111.375 111.375 0 0 1 -20.507-64.524c0-1.055.018-2.106.047-3.154zm30.6 80.044c9.76-8 17.8-10.163 26.864-12.6 11.424-3.065 24.371-6.539 40.028-22.2a79.414 79.414 0 0 0 15.549-21.054 65.206 65.206 0 0 1 2.451 18.963c0 17.858-4.851 26.267-10.468 36-4.988 8.645-10.537 18.265-12.148 34.366a111.9 111.9 0 0 1 -62.281-33.476zm89.353 259.109h-16v-208.257c2.647.164 5.313.257 8 .257s5.353-.093 8-.257zm68.891-254.642c-8-9.758-10.161-17.793-12.593-26.859-3.064-11.423-6.537-24.37-22.193-40.025a79.382 79.382 0 0 0 -21.065-15.554 65.2 65.2 0 0 1 18.96-2.459c17.857 0 26.265 4.851 36 10.468 8.646 4.988 18.265 10.538 34.365 12.148a111.9 111.9 0 0 1 -33.474 62.281zm35.063-78.2c-12.582-1.238-19.815-5.387-27.954-10.084-10.245-5.91-21.855-12.609-44-12.609a79.384 79.384 0 0 0 -25.887 3.9 65.215 65.215 0 0 1 11.672-15.149c12.626-12.625 22-15.14 32.856-18.052 9.631-2.583 20.345-5.458 32.852-15.679a111.374 111.374 0 0 1 20.507 64.515q0 1.583-.046 3.154zm-287.954 116.842a32 32 0 1 0 32-32 32.036 32.036 0 0 0 -32 32zm48 0a16 16 0 1 1 -16-16 16.018 16.018 0 0 1 16 16zm344-128a32 32 0 1 0 -32 32 32.035 32.035 0 0 0 32-32zm-48 0a16 16 0 1 1 16 16 16.019 16.019 0 0 1 -16-16zm-56 304a32 32 0 1 0 32-32 32.036 32.036 0 0 0 -32 32zm48 0a16 16 0 1 1 -16-16 16.018 16.018 0 0 1 16 16zm-344-400a32 32 0 1 0 32 32 32.036 32.036 0 0 0 -32-32zm0 48a16 16 0 1 1 16-16 16.019 16.019 0 0 1 -16 16zm-55.979 259.312a8 8 0 0 0 5.45 7.023l39.119 13.04a24.018 24.018 0 0 0 3.01 30.282l33.94 33.943a24.019 24.019 0 0 0 30.282 3.008l13.04 39.12a8 8 0 0 0 7.022 5.45c.191.014.38.02.57.02a8 8 0 0 0 7.152-4.423l10.122-20.242 20.242-10.123a8 8 0 0 0 -1.048-14.744l-39.13-13.044a24.037 24.037 0 0 0 -3-30.279l-33.938-33.943a24.021 24.021 0 0 0 -30.283-3.008l-13.04-39.12a8 8 0 0 0 -14.745-1.047l-10.121 20.244-20.242 10.121a8 8 0 0 0 -4.402 7.722zm140.167 94.1a7.993 7.993 0 0 0 -3.578 3.578l-2.677 5.353-5.8-17.41 17.41 5.8zm-64.3-80.04a7.949 7.949 0 0 1 5.657 2.343l33.94 33.941a8.009 8.009 0 0 1 0 11.314l-5.655 5.654-5.655 5.654a8.009 8.009 0 0 1 -11.314 0l-33.949-33.935a8.01 8.01 0 0 1 0-11.314l11.314-11.313a7.948 7.948 0 0 1 5.657-2.343zm-41.682-18.785a8 8 0 0 0 3.577-3.578l2.676-5.352 5.8 17.409-17.41-5.8zm319-67.44a24.019 24.019 0 0 0 -3.006 30.283l-39.119 13.04a8 8 0 0 0 -1.048 14.744l20.242 10.121 10.125 20.243a8 8 0 0 0 7.147 4.422c.189 0 .379-.007.57-.02a8 8 0 0 0 7.022-5.45l13.04-39.12a24.016 24.016 0 0 0 30.282-3.008l33.939-33.941a24.018 24.018 0 0 0 3.009-30.282l39.119-13.04a8 8 0 0 0 1.048-14.745l-20.242-10.122-10.12-20.242a8 8 0 0 0 -14.744 1.048l-13.04 39.122a24.017 24.017 0 0 0 -30.283 3.008zm-7.139 64-2.677-5.353a8 8 0 0 0 -3.578-3.578l-5.352-2.676 17.41-5.8zm93.474-116.687 2.677 5.353a8 8 0 0 0 3.577 3.578l5.353 2.676-17.41 5.8zm-35.423 27.72a7.973 7.973 0 0 1 5.657 2.34l5.656 5.656 5.656 5.656a8 8 0 0 1 0 11.314l-33.942 33.94a8 8 0 0 1 -11.314 0l-5.656-5.656-5.656-5.656a8 8 0 0 1 0-11.314l33.941-33.941a7.974 7.974 0 0 1 5.658-2.339z" fill="url(#linear-gradient)"/></svg>