<?xml version="1.0" encoding="iso-8859-1"?>
<!-- Generator: Adobe Illustrator 19.0.0, SVG Export Plug-In . SVG Version: 6.00 Build 0)  -->
<svg version="1.1" id="Capa_1" xmlns="http://www.w3.org/2000/svg" xmlns:xlink="http://www.w3.org/1999/xlink" x="0px" y="0px"
	 viewBox="0 0 511.999 511.999" style="enable-background:new 0 0 511.999 511.999;" xml:space="preserve">
<path style="fill:#5EAC24;" d="M310.498,1.02C310.04,0.38,309.302,0,308.516,0H290.76c-0.787,0-1.525,0.38-1.983,1.02
	c-0.458,0.64-0.578,1.461-0.323,2.205l8.878,25.953c0.337,0.986,1.264,1.647,2.305,1.647s1.968-0.662,2.305-1.647l8.878-25.953
	C311.076,2.481,310.955,1.66,310.498,1.02z"/>
<path style="fill:#6DC82A;" d="M343.336,39.951l-16.653-5.975l9.467-19.173c1.193-2.417,0.716-5.324-1.187-7.234
	c-1.902-1.908-4.81-2.393-7.23-1.209l-28.098,13.762L271.54,6.36c-2.419-1.185-5.326-0.7-7.23,1.209
	c-1.902,1.91-2.38,4.818-1.187,7.234l9.467,19.173l-16.653,5.975c-2.451,0.88-4.107,3.177-4.169,5.779
	c-0.061,2.604,1.486,4.977,3.895,5.969l43.973,20.768l43.973-20.768c2.408-0.992,3.955-3.365,3.895-5.969
	C347.445,43.128,345.788,40.83,343.336,39.951z"/>
<path style="fill:#B9D8F4;" d="M310.88,480.009h-42.987v-75.607c0.074-37.306,27.948-49.925,27.948-49.925h-90.828
	c0,0,27.953,12.649,27.953,50.07v75.46h-42.988c-8.798,0-15.995,7.197-15.995,15.995c0,8.798,7.197,15.995,15.995,15.995H310.88
	c8.798,0,15.995-7.197,15.995-15.995C326.875,487.207,319.678,480.009,310.88,480.009z"/>
<g>
	<path style="fill:#96C8EF;" d="M206.628,496.004c0-8.798,7.198-15.995,15.995-15.995h-32.644c-8.798,0-15.995,7.197-15.995,15.995
		c0,8.798,7.198,15.995,15.995,15.995h32.644C213.827,512,206.628,504.802,206.628,496.004z"/>
	<path style="fill:#96C8EF;" d="M295.844,354.478h-90.828c0,0,25.247,11.451,27.737,44.735c5.767,0.967,11.67,1.471,17.678,1.471
		s11.911-0.504,17.678-1.471C270.601,365.931,295.844,354.478,295.844,354.478z"/>
</g>
<path style="fill:#FF0C38;" d="M330.043,61.9c0,16.792-13.612,47.927-30.405,47.927c-16.793,0-30.405-31.135-30.405-47.927
	s13.612-30.405,30.405-30.405C316.43,31.495,330.043,45.108,330.043,61.9z"/>
<path style="fill:#D80027;" d="M313.218,34.698c-4.089-2.045-8.697-3.202-13.58-3.202c-16.792,0-30.404,13.612-30.404,30.405
	c0,16.792,13.612,47.927,30.404,47.927c4.883,0,9.491-2.643,13.58-6.789c-9.973-10.114-16.824-29.228-16.824-41.138
	S303.244,39.686,313.218,34.698z"/>
<path style="fill:#D1E7F8;" d="M302.423,78.96c-1.185-3.859-4.749-6.493-8.786-6.493h-86.413c-4.037,0-7.602,2.635-8.786,6.493
	c-20.406,66.463-33.946,159.699-33.946,192.203c0,54.138,38.552,98.183,85.939,98.183s85.939-44.045,85.939-98.183
	C336.369,238.658,322.83,145.422,302.423,78.96z"/>
<path style="fill:#B9D8F4;" d="M218.115,271.162c0-32.504,13.539-125.74,33.946-192.203c1.185-3.859,4.75-6.493,8.786-6.493h-53.623
	c-4.037,0-7.602,2.635-8.786,6.493c-20.406,66.463-33.946,159.699-33.946,192.203c0,54.138,38.552,98.183,85.939,98.183
	c9.359,0,18.37-1.725,26.812-4.899C242.944,351.547,218.115,314.609,218.115,271.162z"/>
<path style="fill:#FF5023;" d="M284.645,121.479c-0.986-3.503-4.183-5.922-7.821-5.922h-52.789c-3.638,0-6.834,2.419-7.821,5.922
	c-15.633,55.491-25.609,126.702-25.609,151.347c0,38.822,26.836,70.406,59.824,70.406s59.824-31.584,59.824-70.406
	C310.254,248.182,300.277,176.971,284.645,121.479z"/>
<path style="fill:#FF3501;" d="M245.523,342.974c-16.85-17.935-27.408-43.487-27.408-71.812c0-26.859,9.245-95.184,23.97-155.606
	h-18.049c-3.638,0-6.834,2.419-7.821,5.922c-15.633,55.491-25.609,126.702-25.609,151.347
	C190.606,309.7,214.824,340.024,245.523,342.974z"/>
<g>
	<path style="fill:#D80027;" d="M242.595,251.202c-2.058,0-4.074-0.836-5.536-2.298s-2.298-3.479-2.298-5.536
		c0-2.068,0.836-4.084,2.298-5.547c1.462-1.452,3.479-2.288,5.536-2.288c2.068,0,4.084,0.836,5.547,2.288
		c1.452,1.462,2.288,3.479,2.288,5.547c0,2.058-0.836,4.074-2.288,5.536C246.68,250.366,244.665,251.202,242.595,251.202z"/>
	<path style="fill:#D80027;" d="M273.063,226.407c-2.058,0-4.074-0.836-5.536-2.298c-1.462-1.462-2.298-3.479-2.298-5.536
		c0-2.068,0.836-4.084,2.298-5.547c1.462-1.452,3.479-2.288,5.536-2.288c2.068,0,4.084,0.836,5.547,2.288
		c1.452,1.462,2.288,3.479,2.288,5.547c0,2.058-0.836,4.074-2.288,5.536C277.148,225.572,275.132,226.407,273.063,226.407z"/>
	<path style="fill:#D80027;" d="M242.084,213.698c-2.058,0-4.074-0.836-5.536-2.298c-1.462-1.462-2.298-3.479-2.298-5.536
		c0-2.068,0.836-4.084,2.298-5.547c1.462-1.452,3.479-2.288,5.536-2.288c2.068,0,4.084,0.836,5.547,2.288
		c1.452,1.462,2.288,3.479,2.288,5.547c0,2.058-0.836,4.074-2.288,5.536C246.169,212.862,244.153,213.698,242.084,213.698z"/>
	<path style="fill:#D80027;" d="M263.749,186.065c-2.058,0-4.074-0.836-5.536-2.298s-2.298-3.479-2.298-5.536
		c0-2.068,0.836-4.084,2.298-5.547c1.462-1.452,3.479-2.288,5.536-2.288c2.068,0,4.084,0.836,5.547,2.288
		c1.452,1.462,2.288,3.479,2.288,5.547c0,2.058-0.836,4.074-2.288,5.536C267.833,185.229,265.817,186.065,263.749,186.065z"/>
</g>
<g>
	<path style="fill:#FF3501;" d="M278.886,278.538c-4.244,0-7.73-3.39-7.829-7.654c-0.042-1.825-0.141-3.938-0.292-6.278
		c-0.281-4.318,2.992-8.046,7.31-8.327c4.315-0.276,8.046,2.992,8.327,7.31c0.166,2.557,0.321,4.889,0.322,6.933
		C286.723,279.155,278.948,278.538,278.886,278.538z"/>
	<path style="fill:#FF3501;" d="M250.43,319.726c-4.327,0-7.835-3.507-7.835-7.835c0-4.328,3.508-7.835,7.835-7.835
		c6.713,0,13.341-5.633,17.297-14.699c1.73-3.967,6.349-5.778,10.313-4.048c3.966,1.73,5.778,6.348,4.048,10.313
		C275.601,310.491,263.471,319.726,250.43,319.726z"/>
</g>
<path style="fill:#FFC477;" d="M224.033,115.557c-3.638,0-6.834,2.419-7.821,5.922c-3.355,11.91-6.448,24.544-9.24,37.286h86.91
	c-2.791-12.742-5.884-25.376-9.24-37.286c-0.986-3.503-4.183-5.922-7.821-5.922H224.033z"/>
<path style="fill:#FFB655;" d="M224.032,115.557c-3.638,0-6.834,2.419-7.821,5.922c-3.355,11.91-6.448,24.544-9.24,37.286h25.701
	c2.804-14.412,5.956-29.027,9.412-43.207h-18.052V115.557z"/>
<g>
</g>
<g>
</g>
<g>
</g>
<g>
</g>
<g>
</g>
<g>
</g>
<g>
</g>
<g>
</g>
<g>
</g>
<g>
</g>
<g>
</g>
<g>
</g>
<g>
</g>
<g>
</g>
<g>
</g>
</svg>
