<svg enable-background="new 0 0 100 100" height="512" viewBox="0 0 100 100" width="512" xmlns="http://www.w3.org/2000/svg"><path d="m59.9224663 80.1661758h-18.846695c.1384583-3.9767456-1.3254852-8.1034851-1.6598129-9.993782-.3343277-1.8903046-1.325489-4.8297348-5.6365623-4.8297348s-6.3975182 2.7894363-9.9479122 3.26194c-3.5501118.4843216-4.6338596-1.4177933-4.7374229-3.0199203-.0923061-1.6139412 1.2331829-2.8932762-1.2219257-3.3660583-.1499958-.0227966-.2881737-.0574112-.4150944-.1035652-1.9018354-.5994225.1750774-3.0556374.1750774-3.0556374-2.2707767.5301971-2.0712347-.6970482-2.0712347-.6970482.4609652-.5878868-.3053904-1.2385788-.2823143-1.7572365.0461531-.772213-.207406-1.3485641-.207406-1.3485641-3.4350119 0-5.9019394-2.3284683-2.63972-5.6253014 3.2734776-3.2965546 2.63972-6.4549294.5763483-13.728508-2.0518322-7.2735806 4.4363976-17.6644058 4.4363976-17.6644058l9.764616 5.918499 26.1202736 21.8204575.4378891 10.0284004c-1.9826051 4.7377051 6.1554984 24.1604651 6.1554984 24.1604651z" fill="#fed35b"/><g fill="#293b44"><path d="m18.1899796 17.2613258c-3.5436716.0093861-6.7846813 2.3889084-8.5711184 5.4493561s-2.3102293 6.7036858-2.3254542 10.2473374c.7116046-1.9447823 1.4232097-3.8895664 2.1348157-5.8343506.6683321-1.8265228 1.3503523-3.679203 2.4907532-5.2547474 1.1404009-1.5755424 2.8189306-2.8659134 4.7505913-3.0929413-2.1470509 1.7233849-3.7686777 4.0927143-4.5979681 6.7180061-.8292894 2.6252918-.8629818 5.4962254-.0955315 8.1402569.3033876-2.6023903.6104021-5.2223015 1.3869972-7.724575s2.059494-4.9075394 4.0374269-6.6257515c-1.4757872 2.0584717-2.3253269 4.5597649-2.4084682 7.0912361s.6004448 5.0831165 1.9379845 7.2339859c-.5237122-2.2560692-1.0501137-4.5334759-1.0790281-6.8493538-.0289154-2.315876.4794874-4.7052765 1.8520975-6.5707684-.2645702 2.3334904-.5268803 4.7179794-.0207329 7.0112286.2989998 1.3547134.8582134 2.635931 1.4197884 3.9045048.4944401 1.1169186 1.0595932 2.3065891 2.1266594 2.9010181-1.6362076-4.3465347-2.3694077-9.0306892-2.1396236-13.669302.8289452 4.5717239 2.7522373 8.9412022 5.5637951 12.6402493-.6013966-1.9254551-1.2027931-3.8509121-1.8041897-5.7763691 1.0115318 2.3741779 3.3378296 4.1363525 5.8972206 4.4671535 4.0105209.5183601 7.6888618 2.4206963 10.5412941 5.287159.7469597.7506332 1.4269142 1.5721588 2.2426529 2.2474098.8894386.7362595 1.9902382 1.3674965 2.3640594 2.459938.4903221 1.432888-.4907684 2.9073448-1.3606682 4.1470451-.8699036 1.2397003-1.6970711 2.8764992-.936676 4.1862259.520237.8960686 1.6000824 1.2711487 2.5899887 1.5772095 1.7810669.5506744 3.56213 1.1013527 5.3431969 1.6520271 1.4374924.4444466 2.9245644.8941498 4.4204216.7319031 2.0878601-.2264633 3.8633041-1.6073647 5.3411446-3.0994835 5.4540977-5.506794 8.4493675-13.3642921 8.0449486-21.1043453-.1917572-3.6699028-1.1592941-7.3882542-3.3578835-10.3329391-.7743454-1.0371265-1.7105331-2.0007-2.1216393-3.2279873-.4111023-1.2272882-.0669518-2.8468876 1.1312332-3.3363752.7486305-.3058329 1.633873-.0816994 2.2903442.3905535s1.1228638 1.1598015 1.5367584 1.8545456c3.2208252 5.4063206 3.9912643 12.2111473 2.0606842 18.2007122-3.3903732 10.5185204-.8560104 21.8062325-1.3495789 32.8466301-.2613373 5.8456039-.4812698 11.9292221 1.8558578 17.293663 1.8701706 4.2926483 5.3622589 7.8552322 9.6166687 9.8108215 4.2544174 1.9555893 9.2320938 2.286232 13.7077942.9105377-2.6988297-.0849991-4.4775696-2.806633-5.5032959-5.3043823-4.0745697-9.9219437-3.9031677-21.0334091-3.0626526-31.7264252s2.28228-21.5006905.5382004-32.0839386c-.7063599-4.2862587-1.9631653-8.5525074-4.344841-12.1854954-2.3816681-3.632988-5.9893265-6.5936399-10.2258301-7.5543756-4.236496-.9607358-9.0708313.3370786-11.7878914 3.7265549-7.85289-2.5350204-16.1902618-3.6809521-24.3335419-2.3463192-3.3361168.5467687-6.6579914 1.4346514-9.602766 3.0950594s-4.8979758 4.3555622-6.1939982 7.4778976z"/><path d="m24.6878109 27.1756401c.2215405 2.2809811 1.6840992 4.2650833 3.3811207 5.8052368 1.6970215 1.5401573 3.6657333 2.758091 5.3610077 4.3001671 1.6952782 1.5420761 3.1537209 3.5303345 3.3675079 5.8120575.0915871.9775009-.0742989 2.0250816-.6956978 2.7851906s-1.7725487 1.1287918-2.6335983.6571007c-.8610535-.4716911-1.0975494-1.8694344-.3135567-2.4604111-.4819832 1.0768318-.9417267 2.4123344-.2339172 3.3562012.7661972 1.0217247 2.424118.8150368 3.4420624.0438194 1.772522-1.3428955 2.3176155-3.8526039 1.9106255-6.038826s-1.5970039-4.1347427-2.7648125-6.0272102c-2.3541145-3.8149204-4.8656597-7.7857265-8.7576351-10.0101395"/><path d="m15.4437714 38.5778923s2.8568974-3.0896378 8.4934769-1.8150673c0 0-5.5593662-.3469086-7.9529829 2.9732704z"/><path d="m23.5283928 43.624752s-2.3133049 1.7349815-5.7832642.4337463c0 0-.4819374.9156837-2.0723352.8674889 0 0 3.3735704 1.8313675 7.8555994-1.3012352z"/><path d="m23.5283928 43.624752s-4.0964775 1.2048454-4.9639683 3.7109299h.3373585s1.542202-2.120533 4.6266098-3.7109299z"/></g><path d="m16.9837151 51.333931s1.5308609 2.8872948-1.6504688 3.7122345c-.0000001 0 2.180788-.9427872 1.6504688-3.7122345z" fill="#d6b250"/><path d="m17.4609394 62.1201363c-1.6139431-.5071182-1.0491333-1.7867355-.8414459-2.1672134.0458717-.0689468.0689487-.1035614.0689487-.1035614-.1266403.0230751-.2420216.0461502-.3458652.0692291-.0112572 0-.023077 0-.023077 0-1.8787594.2304802-1.6713533-1.5793304-1.6713533-1.5793304.4612474-.5878868.6109629-1.2101059.6340389-1.7290459l.1615353-.0346146s1.75212.0576935 5.5327158 1.567791c0 0 .0115395 0 .023077.0115395.0115376 0 .0346146 0 .0461521.0115395-.0000001-.0000001.1497154 3.3657798-3.5847264 3.9536666z" fill="#de594e"/><g fill="#467082"><path d="m12.9615679 19.1979275c-1.6212826 1.0824509-2.8441505 2.7480984-3.3912601 4.619173.4616241-.7096786.9232492-1.4193592 1.3848743-2.1290398.3531141-.5428619.7171116-1.0975323 1.2360067-1.4850044.6303349-.4706898 1.4255257-.6486073 2.1944361-.8148842 1.3225107-.2859936 2.6450224-.5719872 3.9675341-.8579826-1.4590778.6944256-2.8948774 1.519268-3.9658823 2.7292614s-1.7368841 2.8667068-1.4382248 4.4547691c.2944746-3.0202236 2.4346638-5.7843075 5.2849588-6.8255959-.9406528 1.0350819-1.662075 2.2684498-2.1032085 3.5957108.4748688-1.1390572 1.1482239-2.1950512 1.9806252-3.1061287-.5876827 3.7214546-.0630932 7.6114082 1.489399 11.0442429-.3528194-2.4632797-.7056389-4.9265614-1.0584564-7.389843-.1023979-.7149048-.2050266-1.4381409-.1342964-2.1568699.0707283-.7187309.3332291-1.4438114.8608513-1.9369545.653513 2.738451 1.6834812 5.386795 3.0518608 7.8472252-.4068108-2.1657429-.8136215-4.3314838-1.2204323-6.4972267-.0986061-.5249538-.1973267-1.0647926-.0973682-1.5894909s.4455853-1.0382786.9616604-1.1759911c-.7773685.1943417-1.8097458-.0333462-2.6143398-.005806-.5882015.020134-1.1401119.1784668-1.720932.247263-1.69434.2006875-3.2138474.4624348-4.6678059 1.4331723z" opacity=".25"/><path d="m31.0307693 32.2839775c-.7573013-.555521-1.5615997-1.0539169-2.2538929-1.6890812-.6922932-.6354465-2.7652321-2.7894154-2.9374619-3.7130356v.0773716c1.3550377 3.6170902 3.8588314 6.7937584 7.0591373 8.9567528 1.3488464.9115181 2.9101639 1.7740707 3.704052 3.133049-1.2652663-2.6667366-3.1915854-5.0185623-5.5718345-6.7650566z" opacity=".25"/><path d="m36.6026039 39.0490341c.1193199.2515869.2408943.5023346.3483963.7589874-.0863953-.2718505-.209095-.520626-.3483963-.7589874z"/><path d="m69.7955933 10.6439648c2.00354 1.902957 2.7933197 4.7391739 3.256691 7.4632721 1.6598587 9.7581921.2178192 19.7360783-.1500702 29.6275921-.3678818 9.8915138.5310745 20.3740349 6.1623077 28.5144615-4.329277-11.6185532-5.6193924-24.3546486-3.7079773-36.6053619.7321091 5.3666267 1.4642181 10.7332535 2.1963272 16.0998802.0018387-2.1848259.0036697-4.3696518.0055008-6.5544777 1.6322937 7.4118996 3.264595 14.8238068 4.8968887 22.2357101-.0448456-12.3208046-1.0510254-24.6379852-3.0063782-36.8027153-.2390747 3.3606987-.4781418 6.7213974-.7172165 10.0820961-.1789169-8.8651276-.3578262-17.7302532-.5367355-26.5953789-.2671814 5.7365227-.5343704 11.4730434-.8015518 17.2095642 1.1100235-8.5334473-.6793213-17.4177723-5.0061722-24.8562088-1.2871628-2.212821-3.0605545-4.4767103-5.5873642-4.8875327-1.836525-.2985806-7.4075279 1.4979959-6.276619 4.1592765 3.1746369-1.3448105 6.5340043-1.691062 9.2723695.9098225z" opacity=".25"/><g opacity=".25"><path d="m55.5947762 42.0066757c-.8088036.7260628-1.6260452 1.4428368-2.4458237 2.1528625.8701515-.6528968 1.6797981-1.3812103 2.4458237-2.1528625z"/><path d="m59.4941292 11.8297319-1.1137695-2.4802246c-2.1072731 1.1076698-6.1963959 2.5823803-8.303669 3.6900492-3.3283501 1.7495871-6.6792183 3.5084629-10.2670403 4.6335793-3.5881042 1.124836-7.464386 1.5919933-11.1200294.7114296 8.4040451 2.9307079 18.3153725 1.0136738 25.0204849-4.8395786-6.8210564 6.0676956-15.1676903 10.4063473-24.052681 12.5032063 9.2612495.232172 18.5717468-2.823204 25.8942909-8.497757-4.2471886 6.3913288-10.2023163 11.6361523-17.0790939 15.0416164 8.4147377-1.6077538 15.9900017-7.1559486 20.0618668-14.6932182-1.0460396 8.2838783-5.2335663 16.132679-11.5323105 21.6138954 8.3235588-4.1163292 13.7997093-13.4029064 13.3730774-22.6787891 2.0262222 4.6597519 2.4320297 10.0056057 1.1329956 14.9180717-1.0209923 3.8605175-3.1012459 7.4216061-5.913475 10.2546635 2.0436707-1.8345795 4.0088272-3.7527351 5.6447182-5.9511909 2.2834435-3.0691643 3.9142685-6.7630825 3.8675537-10.5878601-.0610657-4.9864808-2.8851166-9.4633104-5.6129189-13.6378929z"/><path d="m37.7392426 9.4928207c5.3047638-1.1245546 11.1450729-1.6243558 16.5286369-.7426672-5.9449959-.9734315-12.0622215-.833003-17.9669762.3489609-3.5335083.7072077-11.71945 1.9229422-13.2374306 5.8228598 2.1309128-.4758806 4.4402447-2.1601791 6.5610256-2.9937449 2.6312772-1.0342188 5.3489476-1.8489294 8.1147443-2.4354086z"/></g></g><path d="m62.8335266 12.2058468-2.5698891-4.0479708c-.4121132-.6491766-1.2725563-.8412838-1.92173-.4291706-.6491776.4121132-.84132 1.2723455-.4292068 1.9215221l2.5701332 4.0481462c.4120789.6489677 1.2723465.8413181 1.921524.4292049.6491432-.4123229.8412819-1.2725552.4291687-1.9217318z" fill="#dbd8dd"/><path d="m21.0456657 58.131855-.0461521.0230751-4.3800201 1.7979927c.0458717-.0689468.0689487-.1035614.0689487-.1035614-.1266403.0230751-.2420216.0461502-.3458652.0692291.864521-.5648117 2.6627941-1.5793304 4.6338596-1.7751999.023077-.0115356.046154-.0115356.0692291-.0115356z" fill="#ac433b"/><path d="m15.0682135 54.4459953s-.4117689-1.73983-1.9044285-1.2559471 1.9044285 1.2559471 1.9044285 1.2559471z" fill="#344d5b"/><path d="m37.9122963 53.5091362 1.3516693 2.7387848 3.0224228.4391823-2.1870461 2.1318435.5162926 3.0102158-2.7033386-1.4212303-2.7033424 1.4212303.5162925-3.0102158-2.187046-2.1318435 3.0224266-.4391823z" fill="#ededed"/><circle cx="37.912" cy="52.786" fill="#ededed" r=".961"/><circle cx="37.912" cy="51.005" fill="#ededed" r=".961"/><circle cx="37.912" cy="49.224" fill="#ededed" r=".961"/></svg>