<?xml version="1.0" encoding="iso-8859-1"?>
<!-- Generator: Adobe Illustrator 19.0.0, SVG Export Plug-In . SVG Version: 6.00 Build 0)  -->
<svg version="1.1" id="Capa_1" xmlns="http://www.w3.org/2000/svg" xmlns:xlink="http://www.w3.org/1999/xlink" x="0px" y="0px"
	 viewBox="0 0 512 512" style="enable-background:new 0 0 512 512;" xml:space="preserve">
<g>
	
		<linearGradient id="SVGID_1_" gradientUnits="userSpaceOnUse" x1="-43.7878" y1="606.7109" x2="18.3222" y2="606.7109" gradientTransform="matrix(8.5333 0 0 -8.5333 369.1334 5433.2671)">
		<stop  offset="0" style="stop-color:#B24592"/>
		<stop  offset="1" style="stop-color:#F15F79"/>
	</linearGradient>
	<path style="fill:url(#SVGID_1_);" d="M503.467,102.4h-25.6V68.267h-85.333V102.4h-384c-4.71,0-8.533,3.823-8.533,8.533V435.2
		c0,4.71,3.823,8.533,8.533,8.533h494.933c4.71,0,8.533-3.823,8.533-8.533V110.933C512,106.223,508.177,102.4,503.467,102.4z
		 M409.6,85.333h51.2V102.4h-51.2V85.333z M17.067,426.667v-307.2h477.867v17.067H460.8V153.6h34.133v17.067H460.8v17.067h34.133
		v238.933H17.067z"/>
	
		<linearGradient id="SVGID_2_" gradientUnits="userSpaceOnUse" x1="-43.7878" y1="615.7109" x2="18.3222" y2="615.7109" gradientTransform="matrix(8.5333 0 0 -8.5333 369.1334 5433.2671)">
		<stop  offset="0" style="stop-color:#B24592"/>
		<stop  offset="1" style="stop-color:#F15F79"/>
	</linearGradient>
	<path style="fill:url(#SVGID_2_);" d="M42.667,221.867h119.467c4.71,0,8.533-3.823,8.533-8.533v-68.267
		c0-4.71-3.823-8.533-8.533-8.533H42.667c-4.71,0-8.533,3.823-8.533,8.533v68.267C34.133,218.044,37.956,221.867,42.667,221.867z
		 M51.2,153.6h102.4v51.2H51.2V153.6z"/>
	
		<linearGradient id="SVGID_3_" gradientUnits="userSpaceOnUse" x1="-43.7878" y1="604.7109" x2="18.3222" y2="604.7109" gradientTransform="matrix(8.5333 0 0 -8.5333 369.1334 5433.2671)">
		<stop  offset="0" style="stop-color:#B24592"/>
		<stop  offset="1" style="stop-color:#F15F79"/>
	</linearGradient>
	<path style="fill:url(#SVGID_3_);" d="M307.2,153.6c-65.98,0-119.467,53.487-119.467,119.467S241.22,392.533,307.2,392.533
		s119.467-53.487,119.467-119.467S373.18,153.6,307.2,153.6z M307.2,375.467c-56.55,0-102.4-45.85-102.4-102.4
		s45.85-102.4,102.4-102.4s102.4,45.85,102.4,102.4S363.75,375.467,307.2,375.467z"/>
	
		<linearGradient id="SVGID_4_" gradientUnits="userSpaceOnUse" x1="-43.7878" y1="604.7109" x2="18.3222" y2="604.7109" gradientTransform="matrix(8.5333 0 0 -8.5333 369.1334 5433.2671)">
		<stop  offset="0" style="stop-color:#B24592"/>
		<stop  offset="1" style="stop-color:#F15F79"/>
	</linearGradient>
	<path style="fill:url(#SVGID_4_);" d="M307.2,187.733c-47.13,0-85.333,38.204-85.333,85.333S260.07,358.4,307.2,358.4
		s85.333-38.204,85.333-85.333S354.33,187.733,307.2,187.733z M307.2,341.333c-37.7,0-68.267-30.566-68.267-68.267
		S269.5,204.8,307.2,204.8s68.267,30.566,68.267,68.267S344.9,341.333,307.2,341.333z"/>
	
		<linearGradient id="SVGID_5_" gradientUnits="userSpaceOnUse" x1="-43.7878" y1="607.2109" x2="18.3222" y2="607.2109" gradientTransform="matrix(8.5333 0 0 -8.5333 369.1334 5433.2671)">
		<stop  offset="0" style="stop-color:#B24592"/>
		<stop  offset="1" style="stop-color:#F15F79"/>
	</linearGradient>
	<path style="fill:url(#SVGID_5_);" d="M307.2,221.867c-28.279,0-51.2,22.921-51.2,51.2c0,4.71,3.823,8.533,8.533,8.533
		c4.71,0,8.533-3.823,8.533-8.533c0-18.85,15.283-34.133,34.133-34.133c4.71,0,8.533-3.823,8.533-8.533
		S311.91,221.867,307.2,221.867z"/>
	
		<linearGradient id="SVGID_6_" gradientUnits="userSpaceOnUse" x1="-43.7878" y1="601.7109" x2="18.3222" y2="601.7109" gradientTransform="matrix(8.5333 0 0 -8.5333 369.1334 5433.2671)">
		<stop  offset="0" style="stop-color:#B24592"/>
		<stop  offset="1" style="stop-color:#F15F79"/>
	</linearGradient>
	<circle style="fill:url(#SVGID_6_);" cx="162.133" cy="298.667" r="17.067"/>
	
		<linearGradient id="SVGID_7_" gradientUnits="userSpaceOnUse" x1="-43.7878" y1="589.7109" x2="18.3222" y2="589.7109" gradientTransform="matrix(8.5333 0 0 -8.5333 369.1334 5433.2671)">
		<stop  offset="0" style="stop-color:#B24592"/>
		<stop  offset="1" style="stop-color:#F15F79"/>
	</linearGradient>
	<rect x="34.133" y="392.533" style="fill:url(#SVGID_7_);" width="17.067" height="17.067"/>
	
		<linearGradient id="SVGID_8_" gradientUnits="userSpaceOnUse" x1="-43.7878" y1="589.7109" x2="18.3222" y2="589.7109" gradientTransform="matrix(8.5333 0 0 -8.5333 369.1334 5433.2671)">
		<stop  offset="0" style="stop-color:#B24592"/>
		<stop  offset="1" style="stop-color:#F15F79"/>
	</linearGradient>
	<rect x="68.267" y="392.533" style="fill:url(#SVGID_8_);" width="85.333" height="17.067"/>
	
		<linearGradient id="SVGID_9_" gradientUnits="userSpaceOnUse" x1="-43.7878" y1="591.7109" x2="18.3222" y2="591.7109" gradientTransform="matrix(8.5333 0 0 -8.5333 369.1334 5433.2671)">
		<stop  offset="0" style="stop-color:#B24592"/>
		<stop  offset="1" style="stop-color:#F15F79"/>
	</linearGradient>
	<path style="fill:url(#SVGID_9_);" d="M426.667,409.6h51.2v-51.2h-51.2V409.6z M443.733,375.467H460.8v17.067h-17.067V375.467z"/>
	
		<linearGradient id="SVGID_10_" gradientUnits="userSpaceOnUse" x1="-43.7878" y1="615.7109" x2="18.3222" y2="615.7109" gradientTransform="matrix(8.5333 0 0 -8.5333 369.1334 5433.2671)">
		<stop  offset="0" style="stop-color:#B24592"/>
		<stop  offset="1" style="stop-color:#F15F79"/>
	</linearGradient>
	<rect x="68.267" y="170.667" style="fill:url(#SVGID_10_);" width="17.067" height="17.067"/>
</g>
<g>
</g>
<g>
</g>
<g>
</g>
<g>
</g>
<g>
</g>
<g>
</g>
<g>
</g>
<g>
</g>
<g>
</g>
<g>
</g>
<g>
</g>
<g>
</g>
<g>
</g>
<g>
</g>
<g>
</g>
</svg>
