<svg height="512pt" viewBox="-80 0 512 512.19689" width="512pt" xmlns="http://www.w3.org/2000/svg"><path d="m92.34375 218.710938v-.085938l-2.132812-2.304688-44.800782-47.191406c4.375-1.269531 8.210938-3.933594 10.921875-7.59375 12.289063-.167968 25.6875-4.523437 26.796875-22.441406.210938-8.042969-1.0625-16.054688-3.753906-23.636719v-.085937c.351562-.238282.667969-.527344.9375-.855469 6.070312 6.511719 13.621094 11.457031 22.015625 14.421875 6.15625 2.109375 12.96875.808594 17.917969-3.414062 5.53125-5.464844 8.425781-13.058594 7.9375-20.820313-.058594-6.902344-.917969-13.773437-2.558594-20.480469 2.296875-.894531 4.367188-2.296875 6.058594-4.09375 6.808594 7.410156 15.054687 13.359375 24.234375 17.492188 5.019531 2.449218 10.976562 1.960937 15.53125-1.28125 4.765625-3.773438 8.300781-8.882813 10.152343-14.675782 2.355469-7.324218 3.3125-15.023437 2.816407-22.699218 1.3125-.429688 2.570312-1 3.753906-1.707032 4.964844 7.894532 12.453125 13.878907 21.25 16.980469 2.933594.757813 6.011719.785157 8.960937.085938 3.277344-.769531 6.320313-2.320313 8.871094-4.523438 7.484375-7.472656 12.5625-17.011719 14.59375-27.390625.875-.097656 1.734375-.296875 2.558594-.597656l22.359375 76.628906zm0 0" fill="#fdd834"/><path d="m56.332031 161.535156c-2.710937 3.660156-6.546875 6.324219-10.921875 7.59375l-5.632812-5.886718c.683594-.984376 1.257812-2.042969 1.707031-3.15625 4.886719.988281 9.863281 1.476562 14.847656 1.449218zm0 0" fill="#f3d55b"/><path d="m244.152344 127.828125-153.941406 88.492187-44.800782-47.191406c4.375-1.269531 8.210938-3.933594 10.921875-7.59375 12.289063-.167968 25.6875-4.523437 26.796875-22.441406.210938-8.042969-1.0625-16.054688-3.753906-23.636719v-.085937c.351562-.238282.667969-.527344.9375-.855469 6.070312 6.511719 13.621094 11.457031 22.015625 14.421875 6.15625 2.109375 12.96875.808594 17.917969-3.414062 5.53125-5.464844 8.425781-13.058594 7.9375-20.820313-.058594-6.902344-.917969-13.773437-2.558594-20.480469 2.296875-.894531 4.367188-2.296875 6.058594-4.09375 6.808594 7.410156 15.054687 13.359375 24.234375 17.492188 5.019531 2.449218 10.976562 1.960937 15.53125-1.28125 4.765625-3.773438 8.300781-8.882813 10.152343-14.675782 2.355469-7.324218 3.3125-15.023437 2.816407-22.699218 1.3125-.429688 2.570312-1 3.753906-1.707032 4.964844 7.894532 12.453125 13.878907 21.25 16.980469 2.933594.757813 6.011719.785157 8.960937.085938 3.277344-.769531 6.320313-2.320313 8.871094-4.523438zm0 0" fill="#ffeb3a"/><g fill="#fdd834"><path d="m136.632812 68.265625c.035157 4.464844-1.75 8.75-4.949218 11.863281-1.691406 1.796875-3.761719 3.199219-6.058594 4.09375-1.941406.722656-3.992188 1.097656-6.058594 1.109375-9.425781 0-17.066406-7.640625-17.066406-17.066406s7.640625-17.066406 17.066406-17.066406c9.425782 0 17.066406 7.640625 17.066406 17.066406zm0 0"/><path d="m85.433594 102.398438c-.007813 4.566406-1.855469 8.933593-5.121094 12.117187-.269531.328125-.585938.617187-.9375.855469v.085937c-6.121094 5.167969-15.011719 5.386719-21.378906.527344-6.371094-4.863281-8.503906-13.496094-5.128906-20.761719 3.371093-7.269531 11.339843-11.214844 19.164062-9.488281 7.824219 1.722656 13.394531 8.65625 13.402344 16.664063zm0 0"/><path d="m42.765625 153.601562c.011719 2.222657-.421875 4.429688-1.28125 6.484376-.449219 1.113281-1.023437 2.171874-1.707031 3.15625-4.769532 6.964843-13.910156 9.394531-21.507813 5.71875-7.601562-3.675782-11.371093-12.351563-8.875-20.414063 2.5-8.0625 10.511719-13.085937 18.859375-11.824219 8.34375 1.265625 14.511719 8.4375 14.511719 16.878906zm0 0"/><path d="m196.363281 42.667969c-.042969 5.945312-3.136719 11.457031-8.191406 14.589843-1.183594.707032-2.441406 1.277344-3.753906 1.707032-1.65625.519531-3.382813.777344-5.121094.769531-9.425781 0-17.066406-7.640625-17.066406-17.066406s7.640625-17.066407 17.066406-17.066407 17.066406 7.640626 17.066406 17.066407zm0 0"/><path d="m256.097656 25.601562c-.046875 7.339844-4.738281 13.847657-11.691406 16.210938-.824219.300781-1.683594.5-2.558594.597656-.929687.171875-1.871094.257813-2.816406.257813-9.425781 0-17.066406-7.640625-17.066406-17.066407 0-9.425781 7.640625-17.066406 17.066406-17.066406s17.066406 7.640625 17.066406 17.066406zm0 0"/></g><path d="m342.027344 298.921875c-33.621094-30.464844-32.425782-85.078125-30.207032-108.03125-8.382812 2.492187-17.117187 3.589844-25.855468 3.242187-3.734375-.023437-7.46875-.25-11.179688-.683593h-.085937c-1.621094-.167969-2.558594-.339844-2.558594-.339844l-4.09375.9375-145.238281 33.109375 4.777344 90.199219c-6.230469 6.144531 20.652343 33.875 15.53125 37.632812 1.429687 19.371094 1.398437 38.824219-.085938 58.195313-2.816406 32.683594-28.414062 21.332031-29.183594 31.488281-.03125.460937.023438.925781.171875 1.367187 1.875 4.351563 16.210938.679688 34.046875-.941406h.171875c12.289063-1.550781 24.761719-.800781 36.777344 2.21875 19.03125 5.460938 52.992187 33.707032 76.542969 48.042969 16.042968 9.730469 27.222656 12.972656 25.515625-2.046875-3.839844-32.9375-37.546875-59.222656-46.25-65.792969-1.0625-.808593-1.664063-2.078125-1.621094-3.414062v-28.757813c-.011719-1.378906.644531-2.683594 1.761719-3.496094 1.117187-.8125 2.558594-1.035156 3.871094-.597656 9.9375 3.535156 20.082031 6.472656 30.378906 8.789063h.082031c10.925781 2.390625 21.25 3.328125 25.601563 0 11.179687-8.535157 1.109374-27.820313 20.222656-49.492188 10.714844-12.445312 18.734375-26.972656 23.554687-42.667969.96875-3.246093-.066406-6.761718-2.648437-8.960937zm0 0" fill="#dfc49c"/><path d="m316.429688 298.921875c-32.171876-29.097656-32.425782-80.296875-30.464844-104.789063.085937-1.195312.171875-2.21875.257812-3.242187-3.730468 1.195313-7.554687 2.050781-11.4375 2.558594h-.085937c-2.300781.257812-4.519531.511719-6.652344.597656l-145.238281 33.109375 4.777344 90.199219c-6.230469 6.144531 20.652343 33.875 15.53125 37.632812 1.429687 19.371094 1.398437 38.824219-.085938 58.195313-2.816406 32.683594-28.414062 21.332031-29.183594 31.488281-.03125.460937.023438.925781.171875 1.367187 11.265625-1.703124 22.703125-2.019531 34.046875-.941406h.171875c12.289063-1.550781 24.761719-.800781 36.777344 2.21875 19.03125 5.460938 52.992187 33.707032 76.542969 48.042969.054687-.683594.027344-1.371094-.085938-2.046875-3.839844-32.9375-37.542968-59.222656-46.25-65.792969-1.058594-.808593-1.664062-2.078125-1.621094-3.414062v-28.757813c-.011718-1.378906.644532-2.683594 1.761719-3.496094 1.117188-.8125 2.558594-1.035156 3.871094-.597656 4.777344 1.707032 12.117187 4.09375 19.96875 6.230469 14.25 3.921875 30.207031 6.910156 36.011719 2.558594h.082031c11.179687-8.535157 1.109375-27.820313 20.226563-49.492188 10.710937-12.445312 18.730468-26.972656 23.550781-42.667969.972656-3.246093-.066407-6.761718-2.644531-8.960937zm0 0" fill="#ffe0b2"/><path d="m311.820312 190.890625c-4.253906 1.324219-8.625 2.238281-13.054687 2.730469-3.570313.402344-7.160156.601562-10.753906.597656-5.308594.015625-10.613281-.355469-15.871094-1.109375h-1.28125c-.140625 3.722656-.832031 7.402344-2.046875 10.921875-3.753906 10.582031-13.398438 20.226562-35.242188 23.039062-1.960937.257813-4.097656.429688-6.316406.597657h-.167968c.398437.996093.710937 2.023437.9375 3.074219 1.5 4.476562 2.164062 9.191406 1.964843 13.910156-.769531 10.324218-7.253906 20.820312-30.464843 21.671875-10.179688.160156-20.34375-.84375-30.292969-2.984375v.085937c-.953125 4.273438-1.609375 8.605469-1.964844 12.96875-.167969 1.332031-.253906 2.667969-.253906 4.011719-.171875 14.589844 5.035156 28.671875 29.351562 19.710938v3.925781l-36.265625 36.265625c-5.296875 5.296875-10.972656 10.203125-16.980468 14.679687-7.351563 6.519531-16.796876 10.183594-26.625 10.324219-19.199219-1.878906-20.394532-32-20.394532-32-53.84375-15.445312-10.664062-50.089844-10.664062-50.089844-38.402344-31.488281 6.910156-64.511718 6.910156-64.511718 46.378906-35.609376 96.617188-65.894532 149.761719-90.285157h.082031c15.703125-6.996093 24.578125-9.984375 24.578125-9.984375s59.222656-5.375 65.621094 39.9375c1.625 7.042969.363281 14.441406-3.5 20.546875-3.863281 6.109375-10.007813 10.414063-17.066407 11.964844zm0 0" fill="#cfd8dc"/><path d="m298.765625 193.621094c-3.800781 3.410156-8.324219 5.917968-13.226563 7.339844-5.433593 1.679687-11.050781 2.710937-16.726562 3.070312-2.472656.171875-4.863281.257812-7.082031.257812-5.3125.011719-10.613281-.355468-15.871094-1.109374h-1.28125c-.027344 9.183593-4.042969 17.902343-11.007813 23.890624-1.699218 1.4375-3.558593 2.667969-5.546874 3.671876-8.367188 4.351562-17.621094 6.746093-27.050782 6.996093h-.171875c2.085938 5.414063 3.070313 11.183594 2.902344 16.980469-.183594 4.203125-1.640625 8.25-4.179687 11.605469-4.78125 6.144531-14.335938 10.667969-32.257813 10.070312-6.824219-.171875 4.351563 7.082031-5.035156 5.207031v8.53125c-1.023438 4.609376 8.707031-5.800781 8.535156.34375-.171875 14.589844-3.5 17.148438 20.824219 8.191407v15.445312l-54.957032 44.285157c-6.230468 6.144531-14.679687 2.902343-19.796874 6.65625-.085938.085937-.257813.171874-.34375.257812-19.199219-1.878906-20.394532-32-20.394532-32-53.84375-15.445312-10.664062-50.089844-10.664062-50.089844-38.402344-31.488281 6.910156-64.511718 6.910156-64.511718 46.378906-35.609376 96.617188-65.894532 149.761719-90.285157h.082031c9.816406-.511719 58.199219-.683593 63.917969 40.023438 2.050781 9.09375-.722657 18.605469-7.339844 25.171875zm0 0" fill="#f5f5f5"/><path d="m213.433594 341.332031c0 9.425781-7.644532 17.066407-17.070313 17.066407s-17.066406-7.640626-17.066406-17.066407 7.640625-17.066406 17.066406-17.066406 17.070313 7.640625 17.070313 17.066406zm0 0" fill="#f5f5f5"/><path d="m281.308594 512.195312c-11.246094 0-27.097656-10.738281-52.253906-28.5-16.613282-11.730468-35.445313-25.027343-46.402344-28.179687-15.574219-3.226563-31.632813-3.339844-47.25-.332031-13.339844 1.730468-21.371094 2.78125-26.636719-2.15625-2.445313-2.296875-3.707031-5.582032-3.429687-8.925782.742187-9.832031 9.761718-12.121093 14.609374-13.347656 7.429688-1.890625 13.296876-3.375 14.589844-18.304687 1.464844-18.921875 1.488282-37.925781.070313-56.851563-.21875-3.039062 1.203125-5.96875 3.726562-7.675781 2.523438-1.710937 5.769531-1.945313 8.511719-.613281 2.746094 1.328125 4.570312 4.023437 4.789062 7.066406 1.476563 19.8125 1.445313 39.710938-.09375 59.523438-.28125 8.441406-3.289062 16.5625-8.574218 23.148437 14.808594-2.195313 29.898437-1.488281 44.4375 2.074219 13.703125 3.949218 32.917968 17.511718 51.5 30.632812 12.390625 9.546875 25.679687 17.867188 39.683594 24.839844l-.03125-.285156c-3.15625-27.335938-31.039063-51.074219-42.882813-60.011719-3.195313-2.40625-5.066406-6.179687-5.039063-10.179687v-28.800782c0-4.148437 2.007813-8.039062 5.394532-10.4375 3.382812-2.402344 7.71875-3.011718 11.632812-1.640625 29.226563 10.246094 45.09375 11.5 48.234375 9.902344 1.757813-1.355469 2.332031-4.273437 3.261719-11.078125 1.023438-13.746094 6.484375-26.789062 15.566406-37.15625 9.921875-11.539062 17.351563-25 21.824219-39.542969-36.824219-33.304687-35.492187-91.714843-33.222656-115.285156.289062-3.035156 2.179687-5.683594 4.953125-6.949219 2.773437-1.265625 6.011718-.953125 8.496094.816406 2.484374 1.769532 3.832031 4.730469 3.539062 7.765626-2.023438 21.011718-3.398438 72.898437 27.453125 100.871093 5.050781 4.433594 7.039063 11.414063 5.082031 17.84375-5.203125 16.851563-13.832031 32.445313-25.351562 45.796875-6.835938 7.855469-10.859375 17.765625-11.433594 28.160156-.003906 8.558594-3.628906 16.710938-9.984375 22.441407-3.203125 2.441406-12.667969 9.691406-58.378906-5.539063v20.722656c17.058593 13.1875 44.167969 38.777344 47.808593 70.347657 1.789063 6.757812-.882812 13.910156-6.667968 17.839843-2.277344 1.347657-4.886719 2.039063-7.53125 2zm0 0"/><path d="m118.394531 373.929688c-3.339843.015624-6.648437-.605469-9.753906-1.832032-14.554687-5.769531-19.070313-22.914062-20.464844-32.335937-15.867187-5.59375-25.003906-13.917969-27.1875-24.792969-1.105469-11.875 3.351563-23.585938 12.0625-31.726562-7.542969-7.628907-11.714843-17.960938-11.574219-28.6875.683594-24.140626 24.832032-42.035157 25.855469-42.785157 99.230469-74.90625 173.59375-100.40625 176.710938-101.460937.632812-.210938 1.289062-.351563 1.953125-.410156 23.25-2.105469 68.851562 5.085937 74.816406 47.308593 2.378906 11.574219-1.140625 23.574219-9.394531 32.027344-18.699219 18.347656-56.417969 12.933594-60.671875 12.253906-4.65625-.742187-7.828125-5.117187-7.085938-9.769531.742188-4.65625 5.117188-7.824219 9.769532-7.082031 9.191406 1.460937 35.375 2.90625 46.042968-7.597657 4.285156-4.71875 5.949219-11.257812 4.4375-17.453124-4.863281-34.449219-48.058594-33.246094-55.382812-32.769532-9.007813 3.238282-80.054688 29.980469-171.023438 98.65625-5.234375 3.851563-18.636718 16.539063-18.96875 29.609375.429688 8.722657 5 16.71875 12.300782 21.511719 1.992187 1.632812 3.140624 4.070312 3.125 6.644531-.011719 2.570313-1.183594 5-3.191407 6.609375-4.886719 3.960938-14.523437 14.507813-13.042969 21.765625 1.046876 5.179688 8.410157 9.976563 20.722657 13.515625 3.539062 1.011719 6.027343 4.183594 6.171875 7.859375.289062 6.355469 3.183594 20.433594 10.324218 23.242188 3.59375 1.402343 14.59375 2.097656 39.167969-22.058594 3.371094-3.25 8.730469-3.179687 12.011719.164063 3.285156 3.339843 3.257812 8.699218-.050781 12.011718-18.789063 18.46875-34.503907 27.582032-47.679688 27.582032zm0 0"/><path d="m219.558594 236.476562c-2.644532 0-5.367188-.074218-8.171875-.222656-3.082031-.109375-5.863281-1.871094-7.277344-4.609375s-1.242187-6.027343.449219-8.605469c1.695312-2.574218 4.644531-4.039062 7.71875-3.828124 23.296875 1.195312 39.152344-3.222657 45.894531-12.851563 9.035156-12.886719.832031-32.675781.746094-32.871094-1.859375-4.332031.144531-9.347656 4.476562-11.210937 4.332031-1.859375 9.347657.144531 11.207031 4.476562.496094 1.15625 12.046876 28.570313-2.382812 49.296875-9.441406 13.570313-27.140625 20.425781-52.660156 20.425781zm0 0"/><path d="m196.609375 274.925781c-9.75-.148437-19.464844-1.222656-29.011719-3.214843-5.058594-.957032-10.609375-2.191407-16.507812-3.6875-4.570313-1.15625-7.332032-5.800782-6.171875-10.371094 1.160156-4.566406 5.804687-7.328125 10.371093-6.167969 5.535157 1.402344 10.742188 2.558594 15.53125 3.46875 33.5625 6.542969 44.4375.589844 47.933594-3.539063 5.070313-5.980468 1.929688-16.511718.339844-20.761718-1.648438-4.414063.597656-9.328125 5.011719-10.976563 4.417969-1.648437 9.332031.597657 10.980469 5.011719 3.273437 8.78125 7.199218 25.359375-3.3125 37.757812-7.066407 8.335938-18.675782 12.480469-35.164063 12.480469zm0 0"/><path d="m182.96875 311.492188c-5.289062.140624-10.46875-1.542969-14.660156-4.773438-12.25-9.59375-10.792969-29.886719-7.414063-45.21875.65625-2.976562 2.851563-5.378906 5.757813-6.296875 2.90625-.921875 6.082031-.222656 8.332031 1.835937 2.25 2.058594 3.230469 5.160157 2.574219 8.136719-3.519532 15.96875-1.894532 25.625 1.277344 28.105469 1.183593.925781 6.277343 3.339844 21.941406-4.398438 4.210937-2.011718 9.261718-.265624 11.328125 3.921876 2.066406 4.183593.386719 9.257812-3.773438 11.378906-7.796875 4.3125-16.46875 6.808594-25.363281 7.308594zm0 0"/><path d="m108.558594 138.441406c-13.355469-1.234375-25.6875-7.675781-34.324219-17.933594-2.191406-2.160156-3.046875-5.332031-2.246094-8.300781.804688-2.96875 3.144531-5.277343 6.125-6.039062s6.140625.136719 8.269531 2.355469c4.339844 4.402343 19.234376 18.183593 28.363282 10.476562 5.460937-4.570312 6.386718-16.527344 2.566406-32.824219-1.078125-4.589843 1.769531-9.183593 6.359375-10.257812 4.585937-1.078125 9.179687 1.769531 10.257813 6.355469 5.582031 23.808593 2.820312 40.5625-8.207032 49.792968-4.765625 4.128906-10.863281 6.390625-17.164062 6.375zm0 0"/><path d="m55.40625 170.070312c-5.230469-.039062-10.449219-.578124-15.578125-1.613281-2.992187-.59375-5.4375-2.734375-6.421875-5.621093-.980469-2.886719-.347656-6.078126 1.660156-8.371094 2.007813-2.292969 5.085938-3.34375 8.078125-2.75 13.289063 2.628906 23.820313 1.261718 28.214844-3.644532 4.542969-5.082031 4.5-15.464843-.121094-30.039062-.265625-.832031-.398437-1.699219-.398437-2.574219-.015625-4.339843 3.222656-8.003906 7.535156-8.515625 4.308594-.507812 8.316406 2.292969 9.316406 6.519532 6.433594 20.640624 5.21875 36.113281-3.609375 45.984374-7.605469 7.464844-18.039062 11.332032-28.675781 10.625zm0 0"/><path d="m163.269531 107.695312c-9.113281 0-21.429687-5.21875-37.640625-21.554687-3.253906-3.355469-3.203125-8.699219.113282-11.992187 3.316406-3.292969 8.660156-3.308594 11.992187-.03125 12.800781 12.890624 24 18.953124 28.496094 15.46875 9.679687-7.335938 9.980469-23.574219 9.664062-30.207032-.226562-4.707031 3.410157-8.707031 8.117188-8.933594 4.707031-.226562 8.707031 3.410157 8.933593 8.117188.550782 11.605469-.835937 32.820312-16.339843 44.582031-3.800781 2.980469-8.503907 4.585938-13.335938 4.550781zm0 0"/><path d="m266.765625 126.976562c-3.789063-.003906-7.125-2.507812-8.1875-6.144531l-22.363281-76.628906c-1.320313-4.523437 1.277344-9.261719 5.804687-10.582031 4.523438-1.320313 9.261719 1.277344 10.582031 5.804687l22.355469 76.628907c.746094 2.578124.238281 5.355468-1.371093 7.503906-1.613282 2.144531-4.136719 3.410156-6.820313 3.417968zm0 0"/><path d="m213.984375 83.371094c-9.042969 0-20.710937-4.464844-32.730469-21.117188-1.785156-2.472656-2.117187-5.710937-.867187-8.492187s3.886719-4.6875 6.921875-4.996094c3.03125-.308594 6 1.023437 7.785156 3.496094 4.3125 5.988281 12.820312 15.707031 21.359375 13.75 10.6875-2.457031 15.792969-20.230469 17.105469-25.617188.71875-2.960937 2.964844-5.3125 5.890625-6.171875 2.925781-.855468 6.085937-.089844 8.292969 2.015625 2.203124 2.105469 3.117187 5.226563 2.398437 8.191407-3.015625 12.402343-10.910156 33.859374-29.847656 38.210937-2.066407.484375-4.183594.726563-6.308594.730469zm0 0"/><path d="m92.34375 227.15625c-2.339844.003906-4.578125-.957031-6.1875-2.65625l-52.566406-55.382812c-2.164063-2.199219-2.976563-5.394532-2.117188-8.359376.855469-2.964843 3.246094-5.234374 6.253906-5.9375 3.003907-.703124 6.152344.269532 8.238282 2.546876l52.566406 55.382812c2.347656 2.472656 2.996094 6.105469 1.652344 9.242188-1.347656 3.132812-4.429688 5.164062-7.839844 5.164062zm0 0"/><path d="m119.566406 93.867188c-14.140625 0-25.601562-11.460938-25.601562-25.601563 0-14.136719 11.460937-25.597656 25.601562-25.597656 14.136719 0 25.597656 11.460937 25.597656 25.597656-.015624 14.132813-11.46875 25.585937-25.597656 25.601563zm0-34.132813c-4.714844 0-8.535156 3.820313-8.535156 8.53125 0 4.714844 3.820312 8.535156 8.535156 8.535156 4.710938 0 8.53125-3.820312 8.53125-8.535156-.003906-4.710937-3.820312-8.527344-8.53125-8.53125zm0 0"/><path d="m68.363281 128c-14.136719 0-25.597656-11.460938-25.597656-25.601562 0-14.136719 11.460937-25.597657 25.597656-25.597657 14.140625 0 25.601563 11.460938 25.601563 25.597657-.015625 14.132812-11.46875 25.585937-25.601563 25.601562zm0-34.132812c-4.710937 0-8.53125 3.820312-8.53125 8.53125 0 4.714843 3.820313 8.535156 8.53125 8.535156 4.714844 0 8.535157-3.820313 8.535157-8.535156-.007813-4.707032-3.824219-8.527344-8.535157-8.53125zm0 0"/><path d="m25.699219 179.199219c-14.140625 0-25.6015628-11.460938-25.6015628-25.597657 0-14.140624 11.4609378-25.601562 25.6015628-25.601562 14.136719 0 25.597656 11.460938 25.597656 25.601562-.015625 14.128907-11.464844 25.582032-25.597656 25.597657zm0-34.132813c-4.714844 0-8.535157 3.820313-8.535157 8.535156 0 4.710938 3.820313 8.53125 8.535157 8.53125 4.710937 0 8.53125-3.820312 8.53125-8.53125-.003907-4.710937-3.820313-8.527343-8.53125-8.535156zm0 0"/><path d="m179.296875 68.265625c-14.136719 0-25.597656-11.460937-25.597656-25.597656 0-14.140625 11.460937-25.601563 25.597656-25.601563 14.140625 0 25.601563 11.460938 25.601563 25.601563-.015626 14.128906-11.46875 25.582031-25.601563 25.597656zm0-34.132813c-4.710937 0-8.53125 3.820313-8.53125 8.535157 0 4.710937 3.820313 8.53125 8.53125 8.53125 4.714844 0 8.535156-3.820313 8.535156-8.53125-.007812-4.710938-3.824219-8.527344-8.535156-8.535157zm0 0"/><path d="m239.03125 51.199219c-14.136719 0-25.597656-11.460938-25.597656-25.597657 0-14.140624 11.460937-25.601562 25.597656-25.601562 14.140625 0 25.601562 11.460938 25.601562 25.601562-.015624 14.128907-11.46875 25.582032-25.601562 25.597657zm0-34.132813c-4.710938 0-8.53125 3.820313-8.53125 8.535156 0 4.710938 3.820312 8.53125 8.53125 8.53125 4.714844 0 8.535156-3.820312 8.535156-8.53125-.007812-4.710937-3.824218-8.527343-8.535156-8.535156zm0 0"/><path d="m196.363281 332.800781c-4.710937 0-8.53125-3.820312-8.53125-8.535156v-24.148437c0-4.710938 3.820313-8.53125 8.53125-8.53125 4.714844 0 8.535157 3.820312 8.535157 8.53125v24.148437c0 4.714844-3.820313 8.535156-8.535157 8.535156zm0 0"/><path d="m196.363281 366.933594c-14.136719 0-25.597656-11.460938-25.597656-25.601563 0-14.136719 11.460937-25.597656 25.597656-25.597656 14.140625 0 25.601563 11.460937 25.601563 25.597656-.015625 14.132813-11.46875 25.585938-25.601563 25.601563zm0-34.132813c-4.710937 0-8.53125 3.820313-8.53125 8.53125 0 4.714844 3.820313 8.535157 8.53125 8.535157 4.714844 0 8.535157-3.820313 8.535157-8.535157-.007813-4.710937-3.824219-8.527343-8.535157-8.53125zm0 0"/></svg>