<svg height="512pt" viewBox="-82 0 512 512.14917" width="512pt" xmlns="http://www.w3.org/2000/svg"><path d="m86.675781 217.421875v-.085937l-54.378906-57.292969c.707031-1.019531 1.300781-2.113281 1.765625-3.265625 16.066406 3.179687 55.878906 6.445312 39.195312-46.167969v-.089844c.363282-.246093.691407-.542969.972657-.882812 6.355469 6.445312 26.128906 24.191406 41.3125 11.390625 10.855469-9.09375 8.914062-28.425782 5.558593-42.726563 2.378907-.929687 4.523438-2.375 6.269532-4.238281 11.652344 11.742188 29.484375 25.777344 41.136718 16.773438 12.445313-9.445313 13.949219-27.542969 13.417969-38.664063 1.355469-.445313 2.65625-1.035156 3.882813-1.765625 6.179687 8.5625 17.566406 20.832031 31.25 17.65625 15.359375-3.53125 21.894531-23.21875 24.277344-33.015625.902343-.101563 1.792968-.3125 2.648437-.621094l23.128906 79.273438zm0 0" fill="#f3d55b"/><g fill="#e4c05c"><path d="m132.492188 61.792969c.035156 4.617187-1.8125 9.050781-5.121094 12.269531-1.746094 1.863281-3.890625 3.308594-6.269532 4.238281-2.003906.746094-4.125 1.132813-6.265624 1.148438-9.75 0-17.65625-7.90625-17.65625-17.65625s7.90625-17.65625 17.65625-17.65625 17.65625 7.90625 17.65625 17.65625zm0 0"/><path d="m79.527344 97.101562c-.007813 4.722657-1.917969 9.242188-5.296875 12.535157-.28125.339843-.609375.636719-.972657.882812v.089844c-6.328124 5.34375-15.519531 5.566406-22.101562.539063-6.582031-5.023438-8.785156-13.949219-5.300781-21.460938s11.726562-11.59375 19.8125-9.8125c8.089843 1.78125 13.851562 8.945312 13.859375 17.226562zm0 0"/><path d="m35.386719 150.070312c.015625 2.300782-.4375 4.582032-1.324219 6.707032-.464844 1.152344-1.058594 2.246094-1.765625 3.265625-4.933594 7.203125-14.390625 9.71875-22.25 5.917969-7.863281-3.800782-11.761719-12.777344-9.179687-21.117188 2.582031-8.339844 10.875-13.539062 19.507812-12.234375 8.632812 1.308594 15.015625 8.730469 15.011719 17.460937zm0 0"/><path d="m194.285156 35.308594c-.046875 6.15625-3.246094 11.855468-8.476562 15.097656-1.226563.730469-2.527344 1.320312-3.882813 1.765625-1.714843.535156-3.5.800781-5.296875.792969-9.75 0-17.65625-7.902344-17.65625-17.65625 0-9.75 7.90625-17.652344 17.65625-17.652344s17.65625 7.902344 17.65625 17.652344zm0 0"/><path d="m256.078125 17.65625c-.046875 7.59375-4.902344 14.328125-12.09375 16.769531-.855469.308594-1.746094.519531-2.648437.621094-.960938.175781-1.9375.261719-2.914063.261719-9.75 0-17.65625-7.902344-17.65625-17.652344s7.90625-17.65625 17.65625-17.65625 17.65625 7.90625 17.65625 17.65625zm0 0"/></g><path d="m123.105469 319.453125c-6.433594 6.347656 21.390625 35.0625 16.09375 38.945313 1.476562 20.042968 1.449219 40.167968-.085938 60.207031-2.914062 33.808593-29.398437 22.066406-30.191406 32.574219-.796875 10.503906 40.519531-6.886719 73.621094 2.734374 33.105469 9.621094 109.992187 85.804688 105.578125 47.582032-3.972656-34.074219-38.839844-61.265625-47.84375-68.0625-1.097656-.835938-1.722656-2.152344-1.679688-3.53125v-29.746094c-.015625-1.433594.660156-2.785156 1.816406-3.628906 1.160157-.839844 2.652344-1.070313 4.011719-.609375 14.035157 4.941406 48.816407 16.066406 57.996094 9.089843 11.5625-8.824218 1.148437-28.777343 20.921875-51.199218 11.082031-12.871094 19.378906-27.898438 24.363281-44.136719 1.011719-3.359375-.0625-6.996094-2.734375-9.269531-34.78125-31.515625-33.546875-88.011719-31.25-111.757813-13.382812 3.558594-27.351562 4.339844-41.050781 2.296875l-154.527344 35.308594zm0 0" fill="#fdd7ad"/><path d="m313.722656 188.644531c-7.984375 2.40625-16.292968 3.566407-24.628906 3.445313-5.496094.011718-10.984375-.371094-16.421875-1.148438h-1.324219c-.617187 15.625-9.355468 33.457032-45.109375 35.75h-.175781c2.15625 5.601563 3.175781 11.570313 3.003906 17.566406-1.0625 14.300782-12.800781 29.132813-62.855468 19.332032v.089844c-1.300782 5.773437-2.070313 11.652343-2.292969 17.566406-.175781 15.097656 5.207031 29.660156 30.367187 20.390625v4.0625l-37.519531 37.515625c-5.476563 5.484375-11.347656 10.558594-17.566406 15.183594-46.433594 33.722656-48.640625-22.421876-48.640625-22.421876-55.699219-15.976562-11.03125-51.816406-11.03125-51.816406-39.726563-32.574218 7.148437-66.738281 7.148437-66.738281 102.839844-77.679687 180.4375-103.722656 180.4375-103.722656s61.261719-5.5625 67.882813 41.3125c1.679687 7.285156.375 14.9375-3.621094 21.257812-3.996094 6.316407-10.351562 10.773438-17.652344 12.375zm0 0" fill="#d1d4d1"/><path d="m229.066406 244.257812c-4.152344.179688-8.386718.265626-12.890625.265626-6.089843 0-12.535156-.085938-19.507812-.441407-4.875-.242187-8.628907-4.394531-8.386719-9.269531s4.394531-8.628906 9.269531-8.386719c10.503907.53125 19.949219.621094 28.511719.265625 2.15625 5.601563 3.175781 11.570313 3.003906 17.566406zm0 0" fill="#bdc3c7"/><path d="m289.09375 192.089844c-5.496094.011718-10.984375-.371094-16.421875-1.148438h-1.324219c-.316406-8.703125-2.074218-17.296875-5.207031-25.425781-1.925781-4.484375.148437-9.679687 4.632813-11.605469 4.488281-1.925781 9.683593.148438 11.609374 4.632813 4.183594 10.703125 6.453126 22.058593 6.710938 33.546875zm0 0" fill="#bdc3c7"/><path d="m166.210938 263.679688c-1.300782 5.773437-2.070313 11.652343-2.292969 17.566406-11.828125-2.472656-24.101563-5.296875-36.722657-8.5625-4.292968-1.527344-6.714843-6.070313-5.59375-10.488282 1.121094-4.414062 5.417969-7.25 9.917969-6.546874 11.917969 3 23.480469 5.648437 34.691407 8.03125zm0 0" fill="#bdc3c7"/><path d="m194.285156 335.449219c-4.875 0-8.828125-3.953125-8.828125-8.828125v-20.921875c0-4.875 3.953125-8.828125 8.828125-8.828125s8.828125 3.953125 8.828125 8.828125v20.921875c0 4.875-3.953125 8.828125-8.828125 8.828125zm0 0" fill="#f9eab0"/><path d="m211.9375 344.277344c0 9.75-7.902344 17.652344-17.652344 17.652344s-17.65625-7.902344-17.65625-17.652344c0-9.753906 7.90625-17.65625 17.65625-17.65625s17.652344 7.902344 17.652344 17.65625zm0 0" fill="#fff"/></svg>